<svg width="48" height="48" viewBox="0 0 1.92 1.92" xmlns="http://www.w3.org/2000/svg"><path d="M1.588.342A.538.538 0 0 0 .88.195L.478.444a.448.448 0 0 0-.209.301.461.461 0 0 0 .048.303.441.441 0 0 0-.069.168.467.467 0 0 0 .084.362.539.539 0 0 0 .708.147l.402-.249a.448.448 0 0 0 .209-.301.46.46 0 0 0-.048-.304.441.441 0 0 0 .069-.168.467.467 0 0 0-.084-.361" style="fill:#ff3e00"/><path d="M.841 1.598a.325.325 0 0 1-.343-.123.281.281 0 0 1-.051-.217.258.258 0 0 1 .01-.037l.008-.022.021.014a.526.526 0 0 0 .158.076l.015.004-.002.014a.086.086 0 0 0 .016.058.098.098 0 0 0 .105.038.091.091 0 0 0 .025-.01l.402-.249a.082.082 0 0 0 .038-.055.084.084 0 0 0-.015-.065.098.098 0 0 0-.104-.037.091.091 0 0 0-.025.011l-.154.095a.296.296 0 0 1-.082.035.325.325 0 0 1-.344-.124.281.281 0 0 1-.05-.218.27.27 0 0 1 .125-.181L.996.356a.296.296 0 0 1 .082-.035.325.325 0 0 1 .344.124.281.281 0 0 1 .051.217.256.256 0 0 1-.01.037l-.008.022-.021-.014a.523.523 0 0 0-.158-.076L1.261.627l.002-.014a.086.086 0 0 0-.016-.058.098.098 0 0 0-.103-.037.089.089 0 0 0-.025.011L.716.777a.081.081 0 0 0-.038.054.084.084 0 0 0 .015.066.098.098 0 0 0 .104.037.092.092 0 0 0 .025-.01L.976.829a.294.294 0 0 1 .082-.035.325.325 0 0 1 .344.124.281.281 0 0 1 .051.217.27.27 0 0 1-.125.181l-.402.249a.294.294 0 0 1-.082.035" style="fill:#fff"/></svg>